# xmcd
#
# Track frame offsets:
#	150
#	14673
#	28673
#	43124
#	51848
#	68180
#	79251
#	95424
#	106952
#	118119
#	130433
#	147881
#	162523
#	177880
#	191004
#	206252
#
# Disc length: 2942 seconds
#
# Revision: 1
# Processed by: cddbd v1.5.2PL0 Copyright (c) Steve Scherf et al.
# Submitted via: audiograbber 1.83.01
#
DISCID=e70b7c10
DTITLE=Erik Vandenberge - iwan
DYEAR=2006
DGENRE=Acoustic Blues
TTITLE0=Believe Me
TTITLE1=Sludge
TTITLE2=Lament
TTITLE3=At The Landing
TTITLE4=After The Storm
TTITLE5=Butterfly
TTITLE6=Moon Shining Over The Water
TTITLE7=Parrot Saying Nothing
TTITLE8=Crappy Dog
TTITLE9=Washtub
TTITLE10=Up The River
TTITLE11=Troubles
TTITLE12=Where Do You Go
TTITLE13=Out Of The Water
TTITLE14=Look At What You've Got
TTITLE15=Iwan
EXTD=
EXTT0=
EXTT1=
EXTT2=
EXTT3=
EXTT4=
EXTT5=
EXTT6=
EXTT7=
EXTT8=
EXTT9=
EXTT10=
EXTT11=
EXTT12=
EXTT13=
EXTT14=
EXTT15=
PLAYORDER=
